<svg width="31" height="30" viewBox="0 0 31 30" fill="none" xmlns="http://www.w3.org/2000/svg">
<path d="M7.109 11.8649C7.6817 11.8649 8.2443 11.7752 8.7863 11.6024L12.0077 14.8216L15.5356 11.2944L12.3157 8.07168C12.9364 6.13208 12.4264 3.98288 10.9798 2.53678C9.95 1.50668 8.5791 0.939575 7.1235 0.939575C6.3102 0.939575 5.4947 1.12388 4.763 1.47278C4.6526 1.52538 4.5753 1.62798 4.5546 1.74828C4.5345 1.86858 4.5732 1.99068 4.6591 2.07738L8.0485 5.46758C8.2986 5.71747 8.4366 6.04928 8.4366 6.40148C8.4366 6.75458 8.2984 7.08578 8.0485 7.33568C7.5506 7.83508 6.6801 7.83508 6.1813 7.33438L2.7907 3.94508C2.7038 3.85818 2.5789 3.82008 2.462 3.84028C2.3414 3.86098 2.2391 3.93828 2.1865 4.04868C1.1907 6.13548 1.6175 8.63448 3.2506 10.2664C4.281 11.2968 5.6512 11.8649 7.109 11.8649Z" fill="#FFA233"/>
<path d="M24.3215 18.1347C23.7476 18.1347 23.1841 18.225 22.6417 18.3982L19.0786 14.8348L15.5483 18.3645L19.1124 21.9285C18.493 23.8675 19.0026 26.0161 20.4483 27.4631C21.4784 28.4932 22.8493 29.0604 24.3048 29.0604C25.1185 29.0604 25.9339 28.8757 26.6656 28.5269C26.776 28.4744 26.8533 28.3717 26.874 28.2514C26.8947 28.1311 26.8554 28.0089 26.7695 27.9223L23.3802 24.5314C23.1306 24.2821 22.9927 23.9509 22.9924 23.5987C22.9924 23.2459 23.1303 22.9147 23.3808 22.6645C23.8803 22.1647 24.7489 22.165 25.2474 22.6648L28.6373 26.0541C28.7239 26.1404 28.8448 26.1788 28.9664 26.1589C29.0867 26.1379 29.1894 26.0609 29.2419 25.9505C30.2377 23.864 29.8112 21.3653 28.1781 19.7331C27.148 18.7028 25.7781 18.1347 24.3215 18.1347Z" fill="#FFA233"/>
<path d="M22.8713 10.0988C22.8713 10.0988 23.461 10.6153 23.9472 10.374C24.4967 10.0975 26.0448 11.6237 26.5387 11.9808C26.5403 11.982 26.5437 11.982 26.5495 11.9848L26.2795 12.256C25.9229 12.6085 25.9232 13.1841 26.2786 13.5372C26.6342 13.8913 27.206 13.891 27.5617 13.5372L29.6995 11.4022C30.0527 11.0472 30.053 10.4726 29.6989 10.1182C29.3461 9.76496 28.7706 9.76496 28.4165 10.1185L28.0605 10.4742C27.7655 10.0679 27.2753 9.37536 27.3375 9.14596C27.5982 8.14126 25.55 5.76806 25.55 5.76806C20.4632 0.682258 17.0655 0.797859 15.4491 1.35366C14.8003 1.57686 14.9206 1.71826 15.5945 1.83696C20.4985 2.69296 21.1068 5.58496 20.2755 6.70076C19.9558 7.13156 20.4221 7.65166 20.4221 7.65166L20.5974 7.82576L12.3171 16.1046C12.4294 16.1723 12.5385 16.2493 12.6347 16.3458L14.0276 17.7374C14.1222 17.8323 14.1995 17.9406 14.2666 18.0528L22.547 9.77366L22.8713 10.0988Z" fill="#FFA233"/>
<path d="M12.0776 16.9025C11.772 16.5966 11.2519 16.5769 10.925 16.8608L1.72309 25.1105C1.39469 25.3941 1.37639 25.8768 1.68259 26.183L4.18899 28.6876C4.49539 28.9938 4.97719 28.9767 5.26049 28.6501L13.5127 19.4455C13.795 19.1189 13.7771 18.6006 13.4706 18.2948L12.0776 16.9025Z" fill="#FFA233"/>
</svg>
