<svg width="21" height="20" viewBox="0 0 21 20" fill="none" xmlns="http://www.w3.org/2000/svg">
<g clip-path="url(#clip0)">
<rect width="20" height="20" transform="translate(0.554688)" fill="white"/>
<path d="M10.5547 0C5.04052 0 0.554688 4.48583 0.554688 10C0.554688 15.5142 5.04052 20 10.5547 20C16.0689 20 20.5547 15.5142 20.5547 10C20.5547 4.48583 16.0689 0 10.5547 0ZM15.623 7.88083L10.2064 13.2975C10.0439 13.46 9.83052 13.5417 9.61719 13.5417C9.40385 13.5417 9.19052 13.46 9.02802 13.2975L6.31969 10.5892C5.99385 10.2633 5.99385 9.73667 6.31969 9.41083C6.64552 9.085 7.17219 9.085 7.49802 9.41083L9.61719 11.53L14.4447 6.7025C14.7705 6.37667 15.2972 6.37667 15.623 6.7025C15.9489 7.02833 15.9489 7.555 15.623 7.88083Z" fill="#FFA233"/>
</g>
<defs>
<clipPath id="clip0">
<rect width="20" height="20" fill="white" transform="translate(0.554688)"/>
</clipPath>
</defs>
</svg>
