<svg width="21" height="20" viewBox="0 0 21 20" fill="none" xmlns="http://www.w3.org/2000/svg">
<g clip-path="url(#clip0)">
<rect width="20" height="20" transform="translate(0.894531)" fill="white"/>
<path d="M10.8945 0C5.38036 0 0.894531 4.48583 0.894531 10C0.894531 15.5142 5.38036 20 10.8945 20C16.4087 20 20.8945 15.5142 20.8945 10C20.8945 4.48583 16.4087 0 10.8945 0ZM15.9629 7.88083L10.5462 13.2975C10.3837 13.46 10.1704 13.5417 9.95703 13.5417C9.7437 13.5417 9.53036 13.46 9.36786 13.2975L6.65953 10.5892C6.3337 10.2633 6.3337 9.73667 6.65953 9.41083C6.98536 9.085 7.51203 9.085 7.83786 9.41083L9.95703 11.53L14.7845 6.7025C15.1104 6.37667 15.637 6.37667 15.9629 6.7025C16.2887 7.02833 16.2887 7.555 15.9629 7.88083Z" fill="#E0E0E0"/>
</g>
<defs>
<clipPath id="clip0">
<rect width="20" height="20" fill="white" transform="translate(0.894531)"/>
</clipPath>
</defs>
</svg>
