<svg width="31" height="31" viewBox="0 0 31 31" fill="none" xmlns="http://www.w3.org/2000/svg">
<path d="M8.19727 23.5664C10.1389 23.5664 11.7129 21.9924 11.7129 20.0508C11.7129 18.1092 10.1389 16.5352 8.19727 16.5352C6.25564 16.5352 4.68164 18.1092 4.68164 20.0508C4.68164 21.9924 6.25564 23.5664 8.19727 23.5664Z" fill="#E0E0E0"/>
<path d="M2.04492 29.7188C2.04492 30.2046 2.43803 30.5977 2.92383 30.5977H13.4707C13.9565 30.5977 14.3496 30.2046 14.3496 29.7188C14.3496 26.3267 11.5893 23.5664 8.19727 23.5664C4.80521 23.5664 2.04492 26.3267 2.04492 29.7188Z" fill="#E0E0E0"/>
<path d="M22.2598 23.5664C24.2014 23.5664 25.7754 21.9924 25.7754 20.0508C25.7754 18.1092 24.2014 16.5352 22.2598 16.5352C20.3181 16.5352 18.7441 18.1092 18.7441 20.0508C18.7441 21.9924 20.3181 23.5664 22.2598 23.5664Z" fill="#E0E0E0"/>
<path d="M16.1074 29.7188C16.1074 30.2046 16.5005 30.5977 16.9863 30.5977H27.5332C28.019 30.5977 28.4121 30.2046 28.4121 29.7188C28.4121 26.3267 25.6518 23.5664 22.2598 23.5664C18.8677 23.5664 16.1074 26.3267 16.1074 29.7188Z" fill="#E0E0E0"/>
<path d="M27.5918 0.597656H2.86523C1.41129 0.597656 0.228516 1.78043 0.228516 3.23438V10.2656C0.228516 11.7196 1.41129 12.9023 2.86523 12.9023H6.01693L7.51723 14.4026C7.86053 14.7459 8.41676 14.7459 8.76006 14.4026L10.2604 12.9023H20.1966L21.6969 14.4026C22.0402 14.7459 22.5964 14.746 22.9397 14.4026L24.4401 12.9023H27.5918C29.0457 12.9023 30.2285 11.7196 30.2285 10.2656V3.23438C30.2285 1.78043 29.0457 0.597656 27.5918 0.597656ZM11.6543 9.38672H4.62305C4.13725 9.38672 3.74414 8.99361 3.74414 8.50781C3.74414 8.02201 4.13725 7.62891 4.62305 7.62891H11.6543C12.1401 7.62891 12.5332 8.02201 12.5332 8.50781C12.5332 8.99361 12.1401 9.38672 11.6543 9.38672ZM11.6543 5.87109H4.62305C4.13725 5.87109 3.74414 5.47799 3.74414 4.99219C3.74414 4.50639 4.13725 4.11328 4.62305 4.11328H11.6543C12.1401 4.11328 12.5332 4.50639 12.5332 4.99219C12.5332 5.47799 12.1401 5.87109 11.6543 5.87109ZM25.834 9.38672H18.8027C18.3169 9.38672 17.9238 8.99361 17.9238 8.50781C17.9238 8.02201 18.3169 7.62891 18.8027 7.62891H25.834C26.3198 7.62891 26.7129 8.02201 26.7129 8.50781C26.7129 8.99361 26.3198 9.38672 25.834 9.38672ZM25.834 5.87109H18.8027C18.3169 5.87109 17.9238 5.47799 17.9238 4.99219C17.9238 4.50639 18.3169 4.11328 18.8027 4.11328H25.834C26.3198 4.11328 26.7129 4.50639 26.7129 4.99219C26.7129 5.47799 26.3198 5.87109 25.834 5.87109Z" fill="#E0E0E0"/>
</svg>
